<svg id="visual" viewBox="0 0 1200 600" width="1200" height="600" xmlns="http://www.w3.org/2000/svg" xmlns:xlink="http://www.w3.org/1999/xlink" version="1.1"><path d="M0 544L16.7 539.5C33.3 535 66.7 526 100 518.8C133.3 511.7 166.7 506.3 200 509.5C233.3 512.7 266.7 524.3 300 530C333.3 535.7 366.7 535.3 400 538.2C433.3 541 466.7 547 500 550.8C533.3 554.7 566.7 556.3 600 555C633.3 553.7 666.7 549.3 700 540.2C733.3 531 766.7 517 800 516.5C833.3 516 866.7 529 900 535.2C933.3 541.3 966.7 540.7 1000 536.2C1033.3 531.7 1066.7 523.3 1100 517.5C1133.3 511.7 1166.7 508.3 1183.3 506.7L1200 505L1200 0L1183.3 0C1166.7 0 1133.3 0 1100 0C1066.7 0 1033.3 0 1000 0C966.7 0 933.3 0 900 0C866.7 0 833.3 0 800 0C766.7 0 733.3 0 700 0C666.7 0 633.3 0 600 0C566.7 0 533.3 0 500 0C466.7 0 433.3 0 400 0C366.7 0 333.3 0 300 0C266.7 0 233.3 0 200 0C166.7 0 133.3 0 100 0C66.7 0 33.3 0 16.7 0L0 0Z" fill="#38bdf8"></path><path d="M0 485L16.7 485.7C33.3 486.3 66.7 487.7 100 489.2C133.3 490.7 166.7 492.3 200 489.2C233.3 486 266.7 478 300 471.2C333.3 464.3 366.7 458.7 400 455.7C433.3 452.7 466.7 452.3 500 452.7C533.3 453 566.7 454 600 455.3C633.3 456.7 666.7 458.3 700 466C733.3 473.7 766.7 487.3 800 494C833.3 500.7 866.7 500.3 900 491.3C933.3 482.3 966.7 464.7 1000 458.2C1033.3 451.7 1066.7 456.3 1100 465.3C1133.3 474.3 1166.7 487.7 1183.3 494.3L1200 501L1200 0L1183.3 0C1166.7 0 1133.3 0 1100 0C1066.7 0 1033.3 0 1000 0C966.7 0 933.3 0 900 0C866.7 0 833.3 0 800 0C766.7 0 733.3 0 700 0C666.7 0 633.3 0 600 0C566.7 0 533.3 0 500 0C466.7 0 433.3 0 400 0C366.7 0 333.3 0 300 0C266.7 0 233.3 0 200 0C166.7 0 133.3 0 100 0C66.7 0 33.3 0 16.7 0L0 0Z" fill="#3ca8df"></path><path d="M0 410L16.7 410.2C33.3 410.3 66.7 410.7 100 417.3C133.3 424 166.7 437 200 445.3C233.3 453.7 266.7 457.3 300 449.2C333.3 441 366.7 421 400 413.7C433.3 406.3 466.7 411.7 500 420.7C533.3 429.7 566.7 442.3 600 445.2C633.3 448 666.7 441 700 442C733.3 443 766.7 452 800 446.7C833.3 441.3 866.7 421.7 900 416C933.3 410.3 966.7 418.7 1000 419.5C1033.3 420.3 1066.7 413.7 1100 410.8C1133.3 408 1166.7 409 1183.3 409.5L1200 410L1200 0L1183.3 0C1166.7 0 1133.3 0 1100 0C1066.7 0 1033.3 0 1000 0C966.7 0 933.3 0 900 0C866.7 0 833.3 0 800 0C766.7 0 733.3 0 700 0C666.7 0 633.3 0 600 0C566.7 0 533.3 0 500 0C466.7 0 433.3 0 400 0C366.7 0 333.3 0 300 0C266.7 0 233.3 0 200 0C166.7 0 133.3 0 100 0C66.7 0 33.3 0 16.7 0L0 0Z" fill="#3d94c6"></path><path d="M0 385L16.7 388.5C33.3 392 66.7 399 100 402.8C133.3 406.7 166.7 407.3 200 407.5C233.3 407.7 266.7 407.3 300 403.3C333.3 399.3 366.7 391.7 400 386.5C433.3 381.3 466.7 378.7 500 381.5C533.3 384.3 566.7 392.7 600 397.8C633.3 403 666.7 405 700 403.2C733.3 401.3 766.7 395.7 800 388.7C833.3 381.7 866.7 373.3 900 366.3C933.3 359.3 966.7 353.7 1000 359.8C1033.3 366 1066.7 384 1100 384.5C1133.3 385 1166.7 368 1183.3 359.5L1200 351L1200 0L1183.3 0C1166.7 0 1133.3 0 1100 0C1066.7 0 1033.3 0 1000 0C966.7 0 933.3 0 900 0C866.7 0 833.3 0 800 0C766.7 0 733.3 0 700 0C666.7 0 633.3 0 600 0C566.7 0 533.3 0 500 0C466.7 0 433.3 0 400 0C366.7 0 333.3 0 300 0C266.7 0 233.3 0 200 0C166.7 0 133.3 0 100 0C66.7 0 33.3 0 16.7 0L0 0Z" fill="#3b80ad"></path><path d="M0 322L16.7 325C33.3 328 66.7 334 100 338C133.3 342 166.7 344 200 341.3C233.3 338.7 266.7 331.3 300 333C333.3 334.7 366.7 345.3 400 351.5C433.3 357.7 466.7 359.3 500 353.2C533.3 347 566.7 333 600 326C633.3 319 666.7 319 700 326C733.3 333 766.7 347 800 345C833.3 343 866.7 325 900 321.3C933.3 317.7 966.7 328.3 1000 328.7C1033.3 329 1066.7 319 1100 317C1133.3 315 1166.7 321 1183.3 324L1200 327L1200 0L1183.3 0C1166.7 0 1133.3 0 1100 0C1066.7 0 1033.3 0 1000 0C966.7 0 933.3 0 900 0C866.7 0 833.3 0 800 0C766.7 0 733.3 0 700 0C666.7 0 633.3 0 600 0C566.7 0 533.3 0 500 0C466.7 0 433.3 0 400 0C366.7 0 333.3 0 300 0C266.7 0 233.3 0 200 0C166.7 0 133.3 0 100 0C66.7 0 33.3 0 16.7 0L0 0Z" fill="#386d95"></path><path d="M0 283L16.7 288.7C33.3 294.3 66.7 305.7 100 307.5C133.3 309.3 166.7 301.7 200 294.2C233.3 286.7 266.7 279.3 300 279.8C333.3 280.3 366.7 288.7 400 286C433.3 283.3 466.7 269.7 500 268.3C533.3 267 566.7 278 600 279.5C633.3 281 666.7 273 700 273.8C733.3 274.7 766.7 284.3 800 291.5C833.3 298.7 866.7 303.3 900 306.8C933.3 310.3 966.7 312.7 1000 311.3C1033.3 310 1066.7 305 1100 303.5C1133.3 302 1166.7 304 1183.3 305L1200 306L1200 0L1183.3 0C1166.7 0 1133.3 0 1100 0C1066.7 0 1033.3 0 1000 0C966.7 0 933.3 0 900 0C866.7 0 833.3 0 800 0C766.7 0 733.3 0 700 0C666.7 0 633.3 0 600 0C566.7 0 533.3 0 500 0C466.7 0 433.3 0 400 0C366.7 0 333.3 0 300 0C266.7 0 233.3 0 200 0C166.7 0 133.3 0 100 0C66.7 0 33.3 0 16.7 0L0 0Z" fill="#335b7d"></path><path d="M0 248L16.7 247C33.3 246 66.7 244 100 243.2C133.3 242.3 166.7 242.7 200 244.5C233.3 246.3 266.7 249.7 300 251.7C333.3 253.7 366.7 254.3 400 247.5C433.3 240.7 466.7 226.3 500 219.2C533.3 212 566.7 212 600 219.3C633.3 226.7 666.7 241.3 700 247.7C733.3 254 766.7 252 800 249.8C833.3 247.7 866.7 245.3 900 244.2C933.3 243 966.7 243 1000 241.2C1033.3 239.3 1066.7 235.7 1100 234.8C1133.3 234 1166.7 236 1183.3 237L1200 238L1200 0L1183.3 0C1166.7 0 1133.3 0 1100 0C1066.7 0 1033.3 0 1000 0C966.7 0 933.3 0 900 0C866.7 0 833.3 0 800 0C766.7 0 733.3 0 700 0C666.7 0 633.3 0 600 0C566.7 0 533.3 0 500 0C466.7 0 433.3 0 400 0C366.7 0 333.3 0 300 0C266.7 0 233.3 0 200 0C166.7 0 133.3 0 100 0C66.7 0 33.3 0 16.7 0L0 0Z" fill="#2d4966"></path><path d="M0 212L16.7 208.8C33.3 205.7 66.7 199.3 100 197.2C133.3 195 166.7 197 200 193.7C233.3 190.3 266.7 181.7 300 182C333.3 182.3 366.7 191.7 400 191.7C433.3 191.7 466.7 182.3 500 182.3C533.3 182.3 566.7 191.7 600 197.3C633.3 203 666.7 205 700 198.8C733.3 192.7 766.7 178.3 800 171.7C833.3 165 866.7 166 900 174C933.3 182 966.7 197 1000 199C1033.3 201 1066.7 190 1100 184.2C1133.3 178.3 1166.7 177.7 1183.3 177.3L1200 177L1200 0L1183.3 0C1166.7 0 1133.3 0 1100 0C1066.7 0 1033.3 0 1000 0C966.7 0 933.3 0 900 0C866.7 0 833.3 0 800 0C766.7 0 733.3 0 700 0C666.7 0 633.3 0 600 0C566.7 0 533.3 0 500 0C466.7 0 433.3 0 400 0C366.7 0 333.3 0 300 0C266.7 0 233.3 0 200 0C166.7 0 133.3 0 100 0C66.7 0 33.3 0 16.7 0L0 0Z" fill="#25384f"></path><path d="M0 134L16.7 137.7C33.3 141.3 66.7 148.7 100 152.2C133.3 155.7 166.7 155.3 200 153.8C233.3 152.3 266.7 149.7 300 149.8C333.3 150 366.7 153 400 152.8C433.3 152.7 466.7 149.3 500 145.5C533.3 141.7 566.7 137.3 600 138.8C633.3 140.3 666.7 147.7 700 150C733.3 152.3 766.7 149.7 800 146.3C833.3 143 866.7 139 900 135.8C933.3 132.7 966.7 130.3 1000 129.2C1033.3 128 1066.7 128 1100 126.2C1133.3 124.3 1166.7 120.7 1183.3 118.8L1200 117L1200 0L1183.3 0C1166.7 0 1133.3 0 1100 0C1066.7 0 1033.3 0 1000 0C966.7 0 933.3 0 900 0C866.7 0 833.3 0 800 0C766.7 0 733.3 0 700 0C666.7 0 633.3 0 600 0C566.7 0 533.3 0 500 0C466.7 0 433.3 0 400 0C366.7 0 333.3 0 300 0C266.7 0 233.3 0 200 0C166.7 0 133.3 0 100 0C66.7 0 33.3 0 16.7 0L0 0Z" fill="#1c293a"></path><path d="M0 110L16.7 104C33.3 98 66.7 86 100 81.8C133.3 77.7 166.7 81.3 200 87.2C233.3 93 266.7 101 300 105C333.3 109 366.7 109 400 110.7C433.3 112.3 466.7 115.7 500 114.3C533.3 113 566.7 107 600 106.7C633.3 106.3 666.7 111.7 700 113.8C733.3 116 766.7 115 800 110.5C833.3 106 866.7 98 900 91.5C933.3 85 966.7 80 1000 83.8C1033.3 87.7 1066.7 100.3 1100 108C1133.3 115.7 1166.7 118.3 1183.3 119.7L1200 121L1200 0L1183.3 0C1166.7 0 1133.3 0 1100 0C1066.7 0 1033.3 0 1000 0C966.7 0 933.3 0 900 0C866.7 0 833.3 0 800 0C766.7 0 733.3 0 700 0C666.7 0 633.3 0 600 0C566.7 0 533.3 0 500 0C466.7 0 433.3 0 400 0C366.7 0 333.3 0 300 0C266.7 0 233.3 0 200 0C166.7 0 133.3 0 100 0C66.7 0 33.3 0 16.7 0L0 0Z" fill="#131a25"></path><path d="M0 30L16.7 34.2C33.3 38.3 66.7 46.7 100 49.2C133.3 51.7 166.7 48.3 200 44.7C233.3 41 266.7 37 300 39.7C333.3 42.3 366.7 51.7 400 56.5C433.3 61.3 466.7 61.7 500 60.8C533.3 60 566.7 58 600 55.8C633.3 53.7 666.7 51.3 700 53.5C733.3 55.7 766.7 62.3 800 65.3C833.3 68.3 866.7 67.7 900 65.7C933.3 63.7 966.7 60.3 1000 55.7C1033.3 51 1066.7 45 1100 44C1133.3 43 1166.7 47 1183.3 49L1200 51L1200 0L1183.3 0C1166.7 0 1133.3 0 1100 0C1066.7 0 1033.3 0 1000 0C966.7 0 933.3 0 900 0C866.7 0 833.3 0 800 0C766.7 0 733.3 0 700 0C666.7 0 633.3 0 600 0C566.7 0 533.3 0 500 0C466.7 0 433.3 0 400 0C366.7 0 333.3 0 300 0C266.7 0 233.3 0 200 0C166.7 0 133.3 0 100 0C66.7 0 33.3 0 16.7 0L0 0Z" fill="#030712"></path></svg>