<svg id="visual" viewBox="0 0 1280 600" width="1280" height="600" xmlns="http://www.w3.org/2000/svg" xmlns:xlink="http://www.w3.org/1999/xlink" version="1.1"><path d="M0 544L17.8 539.5C35.7 535 71.3 526 106.8 518.8C142.3 511.7 177.7 506.3 213.2 509.5C248.7 512.7 284.3 524.3 320 530C355.7 535.7 391.3 535.3 426.8 538.2C462.3 541 497.7 547 533.2 550.8C568.7 554.7 604.3 556.3 640 555C675.7 553.7 711.3 549.3 746.8 540.2C782.3 531 817.7 517 853.2 516.5C888.7 516 924.3 529 960 535.2C995.7 541.3 1031.3 540.7 1066.8 536.2C1102.3 531.7 1137.7 523.3 1173.2 517.5C1208.7 511.7 1244.3 508.3 1262.2 506.7L1280 505L1280 0L1262.2 0C1244.3 0 1208.7 0 1173.2 0C1137.7 0 1102.3 0 1066.8 0C1031.3 0 995.7 0 960 0C924.3 0 888.7 0 853.2 0C817.7 0 782.3 0 746.8 0C711.3 0 675.7 0 640 0C604.3 0 568.7 0 533.2 0C497.7 0 462.3 0 426.8 0C391.3 0 355.7 0 320 0C284.3 0 248.7 0 213.2 0C177.7 0 142.3 0 106.8 0C71.3 0 35.7 0 17.8 0L0 0Z" fill="#38bdf8"></path><path d="M0 485L17.8 485.7C35.7 486.3 71.3 487.7 106.8 489.2C142.3 490.7 177.7 492.3 213.2 489.2C248.7 486 284.3 478 320 471.2C355.7 464.3 391.3 458.7 426.8 455.7C462.3 452.7 497.7 452.3 533.2 452.7C568.7 453 604.3 454 640 455.3C675.7 456.7 711.3 458.3 746.8 466C782.3 473.7 817.7 487.3 853.2 494C888.7 500.7 924.3 500.3 960 491.3C995.7 482.3 1031.3 464.7 1066.8 458.2C1102.3 451.7 1137.7 456.3 1173.2 465.3C1208.7 474.3 1244.3 487.7 1262.2 494.3L1280 501L1280 0L1262.2 0C1244.3 0 1208.7 0 1173.2 0C1137.7 0 1102.3 0 1066.8 0C1031.3 0 995.7 0 960 0C924.3 0 888.7 0 853.2 0C817.7 0 782.3 0 746.8 0C711.3 0 675.7 0 640 0C604.3 0 568.7 0 533.2 0C497.7 0 462.3 0 426.8 0C391.3 0 355.7 0 320 0C284.3 0 248.7 0 213.2 0C177.7 0 142.3 0 106.8 0C71.3 0 35.7 0 17.8 0L0 0Z" fill="#3caae2"></path><path d="M0 410L17.8 410.2C35.7 410.3 71.3 410.7 106.8 417.3C142.3 424 177.7 437 213.2 445.3C248.7 453.7 284.3 457.3 320 449.2C355.7 441 391.3 421 426.8 413.7C462.3 406.3 497.7 411.7 533.2 420.7C568.7 429.7 604.3 442.3 640 445.2C675.7 448 711.3 441 746.8 442C782.3 443 817.7 452 853.2 446.7C888.7 441.3 924.3 421.7 960 416C995.7 410.3 1031.3 418.7 1066.8 419.5C1102.3 420.3 1137.7 413.7 1173.2 410.8C1208.7 408 1244.3 409 1262.2 409.5L1280 410L1280 0L1262.2 0C1244.3 0 1208.7 0 1173.2 0C1137.7 0 1102.3 0 1066.8 0C1031.3 0 995.7 0 960 0C924.3 0 888.7 0 853.2 0C817.7 0 782.3 0 746.8 0C711.3 0 675.7 0 640 0C604.3 0 568.7 0 533.2 0C497.7 0 462.3 0 426.8 0C391.3 0 355.7 0 320 0C284.3 0 248.7 0 213.2 0C177.7 0 142.3 0 106.8 0C71.3 0 35.7 0 17.8 0L0 0Z" fill="#3d97cc"></path><path d="M0 385L17.8 388.5C35.7 392 71.3 399 106.8 402.8C142.3 406.7 177.7 407.3 213.2 407.5C248.7 407.7 284.3 407.3 320 403.3C355.7 399.3 391.3 391.7 426.8 386.5C462.3 381.3 497.7 378.7 533.2 381.5C568.7 384.3 604.3 392.7 640 397.8C675.7 403 711.3 405 746.8 403.2C782.3 401.3 817.7 395.7 853.2 388.7C888.7 381.7 924.3 373.3 960 366.3C995.7 359.3 1031.3 353.7 1066.8 359.8C1102.3 366 1137.7 384 1173.2 384.5C1208.7 385 1244.3 368 1262.2 359.5L1280 351L1280 0L1262.2 0C1244.3 0 1208.7 0 1173.2 0C1137.7 0 1102.3 0 1066.8 0C1031.3 0 995.7 0 960 0C924.3 0 888.7 0 853.2 0C817.7 0 782.3 0 746.8 0C711.3 0 675.7 0 640 0C604.3 0 568.7 0 533.2 0C497.7 0 462.3 0 426.8 0C391.3 0 355.7 0 320 0C284.3 0 248.7 0 213.2 0C177.7 0 142.3 0 106.8 0C71.3 0 35.7 0 17.8 0L0 0Z" fill="#3c85b6"></path><path d="M0 322L17.8 325C35.7 328 71.3 334 106.8 338C142.3 342 177.7 344 213.2 341.3C248.7 338.7 284.3 331.3 320 333C355.7 334.7 391.3 345.3 426.8 351.5C462.3 357.7 497.7 359.3 533.2 353.2C568.7 347 604.3 333 640 326C675.7 319 711.3 319 746.8 326C782.3 333 817.7 347 853.2 345C888.7 343 924.3 325 960 321.3C995.7 317.7 1031.3 328.3 1066.8 328.7C1102.3 329 1137.7 319 1173.2 317C1208.7 315 1244.3 321 1262.2 324L1280 327L1280 0L1262.2 0C1244.3 0 1208.7 0 1173.2 0C1137.7 0 1102.3 0 1066.8 0C1031.3 0 995.7 0 960 0C924.3 0 888.7 0 853.2 0C817.7 0 782.3 0 746.8 0C711.3 0 675.7 0 640 0C604.3 0 568.7 0 533.2 0C497.7 0 462.3 0 426.8 0C391.3 0 355.7 0 320 0C284.3 0 248.7 0 213.2 0C177.7 0 142.3 0 106.8 0C71.3 0 35.7 0 17.8 0L0 0Z" fill="#3973a0"></path><path d="M0 283L17.8 288.7C35.7 294.3 71.3 305.7 106.8 307.5C142.3 309.3 177.7 301.7 213.2 294.2C248.7 286.7 284.3 279.3 320 279.8C355.7 280.3 391.3 288.7 426.8 286C462.3 283.3 497.7 269.7 533.2 268.3C568.7 267 604.3 278 640 279.5C675.7 281 711.3 273 746.8 273.8C782.3 274.7 817.7 284.3 853.2 291.5C888.7 298.7 924.3 303.3 960 306.8C995.7 310.3 1031.3 312.7 1066.8 311.3C1102.3 310 1137.7 305 1173.2 303.5C1208.7 302 1244.3 304 1262.2 305L1280 306L1280 0L1262.2 0C1244.3 0 1208.7 0 1173.2 0C1137.7 0 1102.3 0 1066.8 0C1031.3 0 995.7 0 960 0C924.3 0 888.7 0 853.2 0C817.7 0 782.3 0 746.8 0C711.3 0 675.7 0 640 0C604.3 0 568.7 0 533.2 0C497.7 0 462.3 0 426.8 0C391.3 0 355.7 0 320 0C284.3 0 248.7 0 213.2 0C177.7 0 142.3 0 106.8 0C71.3 0 35.7 0 17.8 0L0 0Z" fill="#35628a"></path><path d="M0 248L17.8 247C35.7 246 71.3 244 106.8 243.2C142.3 242.3 177.7 242.7 213.2 244.5C248.7 246.3 284.3 249.7 320 251.7C355.7 253.7 391.3 254.3 426.8 247.5C462.3 240.7 497.7 226.3 533.2 219.2C568.7 212 604.3 212 640 219.3C675.7 226.7 711.3 241.3 746.8 247.7C782.3 254 817.7 252 853.2 249.8C888.7 247.7 924.3 245.3 960 244.2C995.7 243 1031.3 243 1066.8 241.2C1102.3 239.3 1137.7 235.7 1173.2 234.8C1208.7 234 1244.3 236 1262.2 237L1280 238L1280 0L1262.2 0C1244.3 0 1208.7 0 1173.2 0C1137.7 0 1102.3 0 1066.8 0C1031.3 0 995.7 0 960 0C924.3 0 888.7 0 853.2 0C817.7 0 782.3 0 746.8 0C711.3 0 675.7 0 640 0C604.3 0 568.7 0 533.2 0C497.7 0 462.3 0 426.8 0C391.3 0 355.7 0 320 0C284.3 0 248.7 0 213.2 0C177.7 0 142.3 0 106.8 0C71.3 0 35.7 0 17.8 0L0 0Z" fill="#305275"></path><path d="M0 212L17.8 208.8C35.7 205.7 71.3 199.3 106.8 197.2C142.3 195 177.7 197 213.2 193.7C248.7 190.3 284.3 181.7 320 182C355.7 182.3 391.3 191.7 426.8 191.7C462.3 191.7 497.7 182.3 533.2 182.3C568.7 182.3 604.3 191.7 640 197.3C675.7 203 711.3 205 746.8 198.8C782.3 192.7 817.7 178.3 853.2 171.7C888.7 165 924.3 166 960 174C995.7 182 1031.3 197 1066.8 199C1102.3 201 1137.7 190 1173.2 184.2C1208.7 178.3 1244.3 177.7 1262.2 177.3L1280 177L1280 0L1262.2 0C1244.3 0 1208.7 0 1173.2 0C1137.7 0 1102.3 0 1066.8 0C1031.3 0 995.7 0 960 0C924.3 0 888.7 0 853.2 0C817.7 0 782.3 0 746.8 0C711.3 0 675.7 0 640 0C604.3 0 568.7 0 533.2 0C497.7 0 462.3 0 426.8 0C391.3 0 355.7 0 320 0C284.3 0 248.7 0 213.2 0C177.7 0 142.3 0 106.8 0C71.3 0 35.7 0 17.8 0L0 0Z" fill="#294260"></path><path d="M0 134L17.8 137.7C35.7 141.3 71.3 148.7 106.8 152.2C142.3 155.7 177.7 155.3 213.2 153.8C248.7 152.3 284.3 149.7 320 149.8C355.7 150 391.3 153 426.8 152.8C462.3 152.7 497.7 149.3 533.2 145.5C568.7 141.7 604.3 137.3 640 138.8C675.7 140.3 711.3 147.7 746.8 150C782.3 152.3 817.7 149.7 853.2 146.3C888.7 143 924.3 139 960 135.8C995.7 132.7 1031.3 130.3 1066.8 129.2C1102.3 128 1137.7 128 1173.2 126.2C1208.7 124.3 1244.3 120.7 1262.2 118.8L1280 117L1280 0L1262.2 0C1244.3 0 1208.7 0 1173.2 0C1137.7 0 1102.3 0 1066.8 0C1031.3 0 995.7 0 960 0C924.3 0 888.7 0 853.2 0C817.7 0 782.3 0 746.8 0C711.3 0 675.7 0 640 0C604.3 0 568.7 0 533.2 0C497.7 0 462.3 0 426.8 0C391.3 0 355.7 0 320 0C284.3 0 248.7 0 213.2 0C177.7 0 142.3 0 106.8 0C71.3 0 35.7 0 17.8 0L0 0Z" fill="#22334c"></path><path d="M0 110L17.8 104C35.7 98 71.3 86 106.8 81.8C142.3 77.7 177.7 81.3 213.2 87.2C248.7 93 284.3 101 320 105C355.7 109 391.3 109 426.8 110.7C462.3 112.3 497.7 115.7 533.2 114.3C568.7 113 604.3 107 640 106.7C675.7 106.3 711.3 111.7 746.8 113.8C782.3 116 817.7 115 853.2 110.5C888.7 106 924.3 98 960 91.5C995.7 85 1031.3 80 1066.8 83.8C1102.3 87.7 1137.7 100.3 1173.2 108C1208.7 115.7 1244.3 118.3 1262.2 119.7L1280 121L1280 0L1262.2 0C1244.3 0 1208.7 0 1173.2 0C1137.7 0 1102.3 0 1066.8 0C1031.3 0 995.7 0 960 0C924.3 0 888.7 0 853.2 0C817.7 0 782.3 0 746.8 0C711.3 0 675.7 0 640 0C604.3 0 568.7 0 533.2 0C497.7 0 462.3 0 426.8 0C391.3 0 355.7 0 320 0C284.3 0 248.7 0 213.2 0C177.7 0 142.3 0 106.8 0C71.3 0 35.7 0 17.8 0L0 0Z" fill="#1a2539"></path><path d="M0 30L17.8 34.2C35.7 38.3 71.3 46.7 106.8 49.2C142.3 51.7 177.7 48.3 213.2 44.7C248.7 41 284.3 37 320 39.7C355.7 42.3 391.3 51.7 426.8 56.5C462.3 61.3 497.7 61.7 533.2 60.8C568.7 60 604.3 58 640 55.8C675.7 53.7 711.3 51.3 746.8 53.5C782.3 55.7 817.7 62.3 853.2 65.3C888.7 68.3 924.3 67.7 960 65.7C995.7 63.7 1031.3 60.3 1066.8 55.7C1102.3 51 1137.7 45 1173.2 44C1208.7 43 1244.3 47 1262.2 49L1280 51L1280 0L1262.2 0C1244.3 0 1208.7 0 1173.2 0C1137.7 0 1102.3 0 1066.8 0C1031.3 0 995.7 0 960 0C924.3 0 888.7 0 853.2 0C817.7 0 782.3 0 746.8 0C711.3 0 675.7 0 640 0C604.3 0 568.7 0 533.2 0C497.7 0 462.3 0 426.8 0C391.3 0 355.7 0 320 0C284.3 0 248.7 0 213.2 0C177.7 0 142.3 0 106.8 0C71.3 0 35.7 0 17.8 0L0 0Z" fill="#111827"></path></svg>