<svg id="visual" viewBox="0 0 1280 500" width="1280" height="500" xmlns="http://www.w3.org/2000/svg" xmlns:xlink="http://www.w3.org/1999/xlink" version="1.1"><path d="M0 336L30.5 344.5C61 353 122 370 183 377.8C244 385.7 305 384.3 366 375.7C427 367 488 351 548.8 349C609.7 347 670.3 359 731.2 365.2C792 371.3 853 371.7 914 362C975 352.3 1036 332.7 1097 329.8C1158 327 1219 341 1249.5 348L1280 355L1280 0L1249.5 0C1219 0 1158 0 1097 0C1036 0 975 0 914 0C853 0 792 0 731.2 0C670.3 0 609.7 0 548.8 0C488 0 427 0 366 0C305 0 244 0 183 0C122 0 61 0 30.5 0L0 0Z" fill="#38bdf8"></path><path d="M0 338L30.5 331C61 324 122 310 183 314.5C244 319 305 342 366 350.8C427 359.7 488 354.3 548.8 341.7C609.7 329 670.3 309 731.2 300.2C792 291.3 853 293.7 914 293.2C975 292.7 1036 289.3 1097 292.8C1158 296.3 1219 306.7 1249.5 311.8L1280 317L1280 0L1249.5 0C1219 0 1158 0 1097 0C1036 0 975 0 914 0C853 0 792 0 731.2 0C670.3 0 609.7 0 548.8 0C488 0 427 0 366 0C305 0 244 0 183 0C122 0 61 0 30.5 0L0 0Z" fill="#3babe4"></path><path d="M0 275L30.5 281C61 287 122 299 183 300.5C244 302 305 293 366 291.7C427 290.3 488 296.7 548.8 301.3C609.7 306 670.3 309 731.2 308.3C792 307.7 853 303.3 914 300.5C975 297.7 1036 296.3 1097 290.3C1158 284.3 1219 273.7 1249.5 268.3L1280 263L1280 0L1249.5 0C1219 0 1158 0 1097 0C1036 0 975 0 914 0C853 0 792 0 731.2 0C670.3 0 609.7 0 548.8 0C488 0 427 0 366 0C305 0 244 0 183 0C122 0 61 0 30.5 0L0 0Z" fill="#3d9ad0"></path><path d="M0 270L30.5 264.3C61 258.7 122 247.3 183 248.3C244 249.3 305 262.7 366 271.3C427 280 488 284 548.8 284.5C609.7 285 670.3 282 731.2 279.8C792 277.7 853 276.3 914 276C975 275.7 1036 276.3 1097 277.5C1158 278.7 1219 280.3 1249.5 281.2L1280 282L1280 0L1249.5 0C1219 0 1158 0 1097 0C1036 0 975 0 914 0C853 0 792 0 731.2 0C670.3 0 609.7 0 548.8 0C488 0 427 0 366 0C305 0 244 0 183 0C122 0 61 0 30.5 0L0 0Z" fill="#3c8abc"></path><path d="M0 268L30.5 264.5C61 261 122 254 183 253.2C244 252.3 305 257.7 366 257C427 256.3 488 249.7 548.8 243C609.7 236.3 670.3 229.7 731.2 232.3C792 235 853 247 914 248.3C975 249.7 1036 240.3 1097 241.3C1158 242.3 1219 253.7 1249.5 259.3L1280 265L1280 0L1249.5 0C1219 0 1158 0 1097 0C1036 0 975 0 914 0C853 0 792 0 731.2 0C670.3 0 609.7 0 548.8 0C488 0 427 0 366 0C305 0 244 0 183 0C122 0 61 0 30.5 0L0 0Z" fill="#3a79a8"></path><path d="M0 226L30.5 223.3C61 220.7 122 215.3 183 208.7C244 202 305 194 366 198.5C427 203 488 220 548.8 225.2C609.7 230.3 670.3 223.7 731.2 214.7C792 205.7 853 194.3 914 188.8C975 183.3 1036 183.7 1097 190.3C1158 197 1219 210 1249.5 216.5L1280 223L1280 0L1249.5 0C1219 0 1158 0 1097 0C1036 0 975 0 914 0C853 0 792 0 731.2 0C670.3 0 609.7 0 548.8 0C488 0 427 0 366 0C305 0 244 0 183 0C122 0 61 0 30.5 0L0 0Z" fill="#376a94"></path><path d="M0 159L30.5 160.2C61 161.3 122 163.7 183 164.7C244 165.7 305 165.3 366 170.7C427 176 488 187 548.8 192.8C609.7 198.7 670.3 199.3 731.2 200.3C792 201.3 853 202.7 914 196C975 189.3 1036 174.7 1097 169.3C1158 164 1219 168 1249.5 170L1280 172L1280 0L1249.5 0C1219 0 1158 0 1097 0C1036 0 975 0 914 0C853 0 792 0 731.2 0C670.3 0 609.7 0 548.8 0C488 0 427 0 366 0C305 0 244 0 183 0C122 0 61 0 30.5 0L0 0Z" fill="#335b80"></path><path d="M0 171L30.5 168.8C61 166.7 122 162.3 183 162.7C244 163 305 168 366 164.3C427 160.7 488 148.3 548.8 141.8C609.7 135.3 670.3 134.7 731.2 136.3C792 138 853 142 914 147.8C975 153.7 1036 161.3 1097 162.7C1158 164 1219 159 1249.5 156.5L1280 154L1280 0L1249.5 0C1219 0 1158 0 1097 0C1036 0 975 0 914 0C853 0 792 0 731.2 0C670.3 0 609.7 0 548.8 0C488 0 427 0 366 0C305 0 244 0 183 0C122 0 61 0 30.5 0L0 0Z" fill="#2d4c6d"></path><path d="M0 140L30.5 140.3C61 140.7 122 141.3 183 139C244 136.7 305 131.3 366 125.5C427 119.7 488 113.3 548.8 115.7C609.7 118 670.3 129 731.2 129.8C792 130.7 853 121.3 914 120.3C975 119.3 1036 126.7 1097 131.3C1158 136 1219 138 1249.5 139L1280 140L1280 0L1249.5 0C1219 0 1158 0 1097 0C1036 0 975 0 914 0C853 0 792 0 731.2 0C670.3 0 609.7 0 548.8 0C488 0 427 0 366 0C305 0 244 0 183 0C122 0 61 0 30.5 0L0 0Z" fill="#273e5b"></path><path d="M0 95L30.5 96C61 97 122 99 183 99C244 99 305 97 366 97.8C427 98.7 488 102.3 548.8 103C609.7 103.7 670.3 101.3 731.2 100C792 98.7 853 98.3 914 97.8C975 97.3 1036 96.7 1097 96.3C1158 96 1219 96 1249.5 96L1280 96L1280 0L1249.5 0C1219 0 1158 0 1097 0C1036 0 975 0 914 0C853 0 792 0 731.2 0C670.3 0 609.7 0 548.8 0C488 0 427 0 366 0C305 0 244 0 183 0C122 0 61 0 30.5 0L0 0Z" fill="#203149"></path><path d="M0 72L30.5 72.2C61 72.3 122 72.7 183 72.2C244 71.7 305 70.3 366 69.8C427 69.3 488 69.7 548.8 68C609.7 66.3 670.3 62.7 731.2 63C792 63.3 853 67.7 914 68C975 68.3 1036 64.7 1097 62.2C1158 59.7 1219 58.3 1249.5 57.7L1280 57L1280 0L1249.5 0C1219 0 1158 0 1097 0C1036 0 975 0 914 0C853 0 792 0 731.2 0C670.3 0 609.7 0 548.8 0C488 0 427 0 366 0C305 0 244 0 183 0C122 0 61 0 30.5 0L0 0Z" fill="#192437"></path><path d="M0 47L30.5 45C61 43 122 39 183 38C244 37 305 39 366 38.5C427 38 488 35 548.8 32.7C609.7 30.3 670.3 28.7 731.2 31.2C792 33.7 853 40.3 914 41.2C975 42 1036 37 1097 33.8C1158 30.7 1219 29.3 1249.5 28.7L1280 28L1280 0L1249.5 0C1219 0 1158 0 1097 0C1036 0 975 0 914 0C853 0 792 0 731.2 0C670.3 0 609.7 0 548.8 0C488 0 427 0 366 0C305 0 244 0 183 0C122 0 61 0 30.5 0L0 0Z" fill="#111827"></path></svg>