<svg id="visual" viewBox="0 0 900 600" width="900" height="600" xmlns="http://www.w3.org/2000/svg" xmlns:xlink="http://www.w3.org/1999/xlink" version="1.1"><path d="M0 544L12.5 539.5C25 535 50 526 75 518.8C100 511.7 125 506.3 150 509.5C175 512.7 200 524.3 225 530C250 535.7 275 535.3 300 538.2C325 541 350 547 375 550.8C400 554.7 425 556.3 450 555C475 553.7 500 549.3 525 540.2C550 531 575 517 600 516.5C625 516 650 529 675 535.2C700 541.3 725 540.7 750 536.2C775 531.7 800 523.3 825 517.5C850 511.7 875 508.3 887.5 506.7L900 505L900 0L887.5 0C875 0 850 0 825 0C800 0 775 0 750 0C725 0 700 0 675 0C650 0 625 0 600 0C575 0 550 0 525 0C500 0 475 0 450 0C425 0 400 0 375 0C350 0 325 0 300 0C275 0 250 0 225 0C200 0 175 0 150 0C125 0 100 0 75 0C50 0 25 0 12.5 0L0 0Z" fill="#38bdf8"></path><path d="M0 485L12.5 485.7C25 486.3 50 487.7 75 489.2C100 490.7 125 492.3 150 489.2C175 486 200 478 225 471.2C250 464.3 275 458.7 300 455.7C325 452.7 350 452.3 375 452.7C400 453 425 454 450 455.3C475 456.7 500 458.3 525 466C550 473.7 575 487.3 600 494C625 500.7 650 500.3 675 491.3C700 482.3 725 464.7 750 458.2C775 451.7 800 456.3 825 465.3C850 474.3 875 487.7 887.5 494.3L900 501L900 0L887.5 0C875 0 850 0 825 0C800 0 775 0 750 0C725 0 700 0 675 0C650 0 625 0 600 0C575 0 550 0 525 0C500 0 475 0 450 0C425 0 400 0 375 0C350 0 325 0 300 0C275 0 250 0 225 0C200 0 175 0 150 0C125 0 100 0 75 0C50 0 25 0 12.5 0L0 0Z" fill="#3ca8df"></path><path d="M0 410L12.5 410.2C25 410.3 50 410.7 75 417.3C100 424 125 437 150 445.3C175 453.7 200 457.3 225 449.2C250 441 275 421 300 413.7C325 406.3 350 411.7 375 420.7C400 429.7 425 442.3 450 445.2C475 448 500 441 525 442C550 443 575 452 600 446.7C625 441.3 650 421.7 675 416C700 410.3 725 418.7 750 419.5C775 420.3 800 413.7 825 410.8C850 408 875 409 887.5 409.5L900 410L900 0L887.5 0C875 0 850 0 825 0C800 0 775 0 750 0C725 0 700 0 675 0C650 0 625 0 600 0C575 0 550 0 525 0C500 0 475 0 450 0C425 0 400 0 375 0C350 0 325 0 300 0C275 0 250 0 225 0C200 0 175 0 150 0C125 0 100 0 75 0C50 0 25 0 12.5 0L0 0Z" fill="#3d94c6"></path><path d="M0 385L12.5 388.5C25 392 50 399 75 402.8C100 406.7 125 407.3 150 407.5C175 407.7 200 407.3 225 403.3C250 399.3 275 391.7 300 386.5C325 381.3 350 378.7 375 381.5C400 384.3 425 392.7 450 397.8C475 403 500 405 525 403.2C550 401.3 575 395.7 600 388.7C625 381.7 650 373.3 675 366.3C700 359.3 725 353.7 750 359.8C775 366 800 384 825 384.5C850 385 875 368 887.5 359.5L900 351L900 0L887.5 0C875 0 850 0 825 0C800 0 775 0 750 0C725 0 700 0 675 0C650 0 625 0 600 0C575 0 550 0 525 0C500 0 475 0 450 0C425 0 400 0 375 0C350 0 325 0 300 0C275 0 250 0 225 0C200 0 175 0 150 0C125 0 100 0 75 0C50 0 25 0 12.5 0L0 0Z" fill="#3b80ad"></path><path d="M0 322L12.5 325C25 328 50 334 75 338C100 342 125 344 150 341.3C175 338.7 200 331.3 225 333C250 334.7 275 345.3 300 351.5C325 357.7 350 359.3 375 353.2C400 347 425 333 450 326C475 319 500 319 525 326C550 333 575 347 600 345C625 343 650 325 675 321.3C700 317.7 725 328.3 750 328.7C775 329 800 319 825 317C850 315 875 321 887.5 324L900 327L900 0L887.5 0C875 0 850 0 825 0C800 0 775 0 750 0C725 0 700 0 675 0C650 0 625 0 600 0C575 0 550 0 525 0C500 0 475 0 450 0C425 0 400 0 375 0C350 0 325 0 300 0C275 0 250 0 225 0C200 0 175 0 150 0C125 0 100 0 75 0C50 0 25 0 12.5 0L0 0Z" fill="#386d95"></path><path d="M0 283L12.5 288.7C25 294.3 50 305.7 75 307.5C100 309.3 125 301.7 150 294.2C175 286.7 200 279.3 225 279.8C250 280.3 275 288.7 300 286C325 283.3 350 269.7 375 268.3C400 267 425 278 450 279.5C475 281 500 273 525 273.8C550 274.7 575 284.3 600 291.5C625 298.7 650 303.3 675 306.8C700 310.3 725 312.7 750 311.3C775 310 800 305 825 303.5C850 302 875 304 887.5 305L900 306L900 0L887.5 0C875 0 850 0 825 0C800 0 775 0 750 0C725 0 700 0 675 0C650 0 625 0 600 0C575 0 550 0 525 0C500 0 475 0 450 0C425 0 400 0 375 0C350 0 325 0 300 0C275 0 250 0 225 0C200 0 175 0 150 0C125 0 100 0 75 0C50 0 25 0 12.5 0L0 0Z" fill="#335b7d"></path><path d="M0 248L12.5 247C25 246 50 244 75 243.2C100 242.3 125 242.7 150 244.5C175 246.3 200 249.7 225 251.7C250 253.7 275 254.3 300 247.5C325 240.7 350 226.3 375 219.2C400 212 425 212 450 219.3C475 226.7 500 241.3 525 247.7C550 254 575 252 600 249.8C625 247.7 650 245.3 675 244.2C700 243 725 243 750 241.2C775 239.3 800 235.7 825 234.8C850 234 875 236 887.5 237L900 238L900 0L887.5 0C875 0 850 0 825 0C800 0 775 0 750 0C725 0 700 0 675 0C650 0 625 0 600 0C575 0 550 0 525 0C500 0 475 0 450 0C425 0 400 0 375 0C350 0 325 0 300 0C275 0 250 0 225 0C200 0 175 0 150 0C125 0 100 0 75 0C50 0 25 0 12.5 0L0 0Z" fill="#2d4966"></path><path d="M0 212L12.5 208.8C25 205.7 50 199.3 75 197.2C100 195 125 197 150 193.7C175 190.3 200 181.7 225 182C250 182.3 275 191.7 300 191.7C325 191.7 350 182.3 375 182.3C400 182.3 425 191.7 450 197.3C475 203 500 205 525 198.8C550 192.7 575 178.3 600 171.7C625 165 650 166 675 174C700 182 725 197 750 199C775 201 800 190 825 184.2C850 178.3 875 177.7 887.5 177.3L900 177L900 0L887.5 0C875 0 850 0 825 0C800 0 775 0 750 0C725 0 700 0 675 0C650 0 625 0 600 0C575 0 550 0 525 0C500 0 475 0 450 0C425 0 400 0 375 0C350 0 325 0 300 0C275 0 250 0 225 0C200 0 175 0 150 0C125 0 100 0 75 0C50 0 25 0 12.5 0L0 0Z" fill="#25384f"></path><path d="M0 134L12.5 137.7C25 141.3 50 148.7 75 152.2C100 155.7 125 155.3 150 153.8C175 152.3 200 149.7 225 149.8C250 150 275 153 300 152.8C325 152.7 350 149.3 375 145.5C400 141.7 425 137.3 450 138.8C475 140.3 500 147.7 525 150C550 152.3 575 149.7 600 146.3C625 143 650 139 675 135.8C700 132.7 725 130.3 750 129.2C775 128 800 128 825 126.2C850 124.3 875 120.7 887.5 118.8L900 117L900 0L887.5 0C875 0 850 0 825 0C800 0 775 0 750 0C725 0 700 0 675 0C650 0 625 0 600 0C575 0 550 0 525 0C500 0 475 0 450 0C425 0 400 0 375 0C350 0 325 0 300 0C275 0 250 0 225 0C200 0 175 0 150 0C125 0 100 0 75 0C50 0 25 0 12.5 0L0 0Z" fill="#1c293a"></path><path d="M0 110L12.5 104C25 98 50 86 75 81.8C100 77.7 125 81.3 150 87.2C175 93 200 101 225 105C250 109 275 109 300 110.7C325 112.3 350 115.7 375 114.3C400 113 425 107 450 106.7C475 106.3 500 111.7 525 113.8C550 116 575 115 600 110.5C625 106 650 98 675 91.5C700 85 725 80 750 83.8C775 87.7 800 100.3 825 108C850 115.7 875 118.3 887.5 119.7L900 121L900 0L887.5 0C875 0 850 0 825 0C800 0 775 0 750 0C725 0 700 0 675 0C650 0 625 0 600 0C575 0 550 0 525 0C500 0 475 0 450 0C425 0 400 0 375 0C350 0 325 0 300 0C275 0 250 0 225 0C200 0 175 0 150 0C125 0 100 0 75 0C50 0 25 0 12.5 0L0 0Z" fill="#131a25"></path><path d="M0 30L12.5 34.2C25 38.3 50 46.7 75 49.2C100 51.7 125 48.3 150 44.7C175 41 200 37 225 39.7C250 42.3 275 51.7 300 56.5C325 61.3 350 61.7 375 60.8C400 60 425 58 450 55.8C475 53.7 500 51.3 525 53.5C550 55.7 575 62.3 600 65.3C625 68.3 650 67.7 675 65.7C700 63.7 725 60.3 750 55.7C775 51 800 45 825 44C850 43 875 47 887.5 49L900 51L900 0L887.5 0C875 0 850 0 825 0C800 0 775 0 750 0C725 0 700 0 675 0C650 0 625 0 600 0C575 0 550 0 525 0C500 0 475 0 450 0C425 0 400 0 375 0C350 0 325 0 300 0C275 0 250 0 225 0C200 0 175 0 150 0C125 0 100 0 75 0C50 0 25 0 12.5 0L0 0Z" fill="#030712"></path></svg>